<svg xmlns="http://www.w3.org/2000/svg" viewBox="0 0 36 31" width="36" height="31">
	<defs>
	</defs>
	<path id="Shape 1" style="fill: #ffffff" d="M25.82,12.99c-0.05,-3.86 -3.17,-6.99 -6.99,-6.99c-1.7,0 -3.34,0.63 -4.61,1.77c-1.14,1.02 -1.92,2.37 -2.22,3.86c-0.02,0 -0.04,0 -0.07,0c-3.27,0 -5.92,2.69 -5.92,6c0,3.31 2.66,6 5.92,6h4.14c0.29,0 0.53,-0.24 0.53,-0.54c0,-0.3 -0.24,-0.54 -0.53,-0.54h-4.14c-2.68,0 -4.86,-2.21 -4.86,-4.92c0,-2.71 2.18,-4.92 4.86,-4.92c0.14,0 0.29,0.01 0.46,0.02c0.28,0.03 0.54,-0.18 0.58,-0.46c0.19,-1.43 0.89,-2.74 1.96,-3.69c1.08,-0.96 2.47,-1.5 3.91,-1.5c3.27,0 5.93,2.69 5.93,6.01c0,0.12 -0.01,0.24 -0.02,0.37l0,0.06c-0.01,0.16 0.05,0.31 0.16,0.43c0.11,0.11 0.27,0.17 0.42,0.15c0.14,-0.01 0.28,-0.02 0.43,-0.02c2.31,0 4.19,1.9 4.19,4.24c0,2.34 -1.88,4.24 -4.19,4.24h-4.35c-0.29,0 -0.53,0.24 -0.53,0.54c0,0.3 0.24,0.54 0.53,0.54h4.35c2.9,0 5.25,-2.39 5.25,-5.32c0,-2.91 -2.32,-5.28 -5.18,-5.32zM18.83,8.54c-2.23,0 -4.14,1.69 -4.44,3.93c-0.04,0.3 0.16,0.57 0.46,0.61c0.02,0 0.05,0.01 0.07,0.01c0.26,0 0.49,-0.2 0.53,-0.47c0.23,-1.71 1.68,-2.99 3.38,-2.99c0.29,0 0.53,-0.24 0.53,-0.54c0,-0.3 -0.24,-0.54 -0.53,-0.54zM21.25,19.17l-1.94,-1.76c-0.33,-0.3 -0.84,-0.3 -1.17,0l-1.94,1.76c-0.22,0.2 -0.24,0.54 -0.04,0.76c0.2,0.22 0.53,0.24 0.75,0.04l1.28,-1.16v6.65c0,0.3 0.24,0.54 0.53,0.54c0.29,0 0.53,-0.24 0.53,-0.54v-6.65l1.28,1.16c0.1,0.09 0.23,0.14 0.35,0.14c0.15,0 0.29,-0.06 0.4,-0.18c0.2,-0.22 0.18,-0.56 -0.04,-0.76z" />
</svg>