<svg width="704" height="180" xmlns="http://www.w3.org/2000/svg">
  <path fill="#ff0004" id="svg_2" d="m476.19,3.04999c7.47,-1.72998 14.59,-1.94998 22.22,-1.85999c20.60001,-0.22 41.13998,9.18999 56.37997,22.73c37.90002,33.17 29.08002,39.47 27.95001,54.24001c0.22003,0.39 0.27002,1.27 0.29004,2.16c-5.33002,12.12 -5.69012,28.13 -0.65015,28.26c1.41003,38.10991 -26.0899,45.87999 -27.61987,47.31c-14.03003,12.47 -31.98999,21.01999 -50.83002,22.28c-11.41,1.05 -19.38998,0.76999 -28.81,-1.65001c-24.38998,-5.47 -45.94,-21.92999 -57.92999,-43.81998c-15.84006,-28.14999 -14.48001,-65.07998 3.73001,-91.82001c12.59998,-19.12001 32.84998,-33.06001 55.26999,-37.83002z"/>
  <path fill="#ffffff" stroke-linejoin="null" stroke-linecap="null" id="svg_26" d="m591.09998,72.3l72.99994,-4.69997l-2.09998,51.49996l-70.89996,0c-14.89996,-10.79988 -16.69934,-36.59997 0,-46.79999z"/>
  <path fill="#fa0" id="svg_3" d="m593.40002,3.39999c7.88995,-2.10999 14.97998,-2.03999 23.03998,-2.18999c4.62,-0.05 10.87,0.68999 15.41998,1.61999c19.47003,3.99 37.56,14.64 50.35004,29.87c12.52997,14.84 20.22998,33.84 20.76996,53.32c0.94,18.47 -4.10999,37.14001 -14.34998,52.55001c-13.41998,20.82999 -36.03003,35.53999 -60.54999,39.18999c-8.67004,0.45001 -16.17999,1.54001 -26.04999,0.18001c-17.54004,-2 -34.29004,-10.05 -47.27002,-21.95c1.52997,-1.43001 3.33002,-3.10001 4.83002,-4.56001l-9.13,-0.03l-4.95001,-5.51999l18.35999,0.19l4.03003,-5.24001l-26.52002,-0.42l-3.23999,-4.57001l32.28998,-0.12999l3.422,-5.60001l-38.94202,0.2l-2.39996,-4.98999c13.87,-0.28001 29.55298,0 43.42297,-0.10001l2.41699,-5.43l-47.56995,0.04l-2.08002,-5.15l51.45996,-0.15l2.12006,-5.85c-5.04004,-0.13 -10.38,-0.14 -15.41003,-0.03c0.28998,-1.66 0.54999,-3.33 0.82001,-5c4.27002,0.01 8.54999,0.01 12.84003,0.02c4.19995,8.63 15.88995,11.07 23.97998,6.86c0.77002,-2.03 1.07001,-4.19 1.70001,-6.27l0.41998,-1.94c0.04999,4.53 1.71997,8.05 4.60999,9.42c4.57001,2.28 9.97998,0.97 14.20001,-1.5c0.20001,0.59 0.60999,1.76 0.81,2.35c2.45001,-0.03999 4.90997,-0.06 7.37,-0.06c1.38,-7.6 2.97998,-15.15 4.34998,-22.74c1.12006,-4.39 -2.50995,-8.34 -6.52997,-9.43c-5.40997,-1.39 -11.38,-1.28 -16.67999,0.5c-1.64001,2.17 -1.90002,5.02 -2.75,7.53c4.58002,-0.84 9.31,-1.75 13.96997,-0.97c1.92999,0.24001 2.09003,2.25 2.28003,3.95c-5.52002,0.54 -10.45001,-0.18 -15.48999,2.61c-3.12,1.6 -4.78003,3.35999 -5.87,8c-2.87,1.16 -5.69,2.93999 -8.92004,2.53999c-4.32001,-0.02 -8.75,-2.93 -9.26001,-7.46c-0.51996,-5.57 1.28003,-11.97 5.89001,-15.46c4.62,-3.25 10.47003,-1.55 15.29999,0.23c0.41003,-2.82 0.79004,-5.64 1.09003,-8.48c-9.28998,-3.3 -22.23999,-1.82 -28.07001,7.17l-0.19,-2.25999c-18.57001,-0.07 -37.14996,0.03 -55.71997,-0.09c0.26001,-1.75 0.52997,-3.50999 0.78998,-5.25999l54.53003,0.35l-1.45001,-5.75l-52.91003,-0.13l1.97003,-5.09l49.73999,-0.05l-2.27502,-5.59c-13.75,0.07 -31.90497,0.07 -45.65497,0.04l3.026,-4.93001c13.15997,-0.24 27.14398,0.07001 40.32397,-0.09999l-3.73999,-5.52c-11.01001,-0.1 -22.92999,0.18 -33.94,-0.06l3.65002,-4.87l27.82996,-0.05l-4.56598,-5.75999l-20.07397,-0.2l3.76996,-5.15001l12.69,0.18c-1.89996,-2.14999 -3.82996,-4.27 -5.94,-6.20999c10.85004,-10.23 24.15002,-17.18001 38.61005,-20.62l0,-0.00002l0,0l0,0z"/>
  <path d="m213.89,39.82c16.83,-6.46 35.92,-5.97 52.84001,-0.05c-1.33002,8.01 -2.73001,16.01 -4.08002,24.02c-9.18999,-4.45 -19.65999,-6.46 -29.82999,-5.18c-4.43001,0.62 -9.43001,2.32 -11.51001,6.64c-1.27,2.84 0.39,6.03 2.67,7.79c8.3,6.54 19.04001,8.98 27.19,15.77c6.53999,5 11.50999,12.73 11.12999,21.22c0.46002,10.73 -5.09,21.22 -13.77998,27.39c-11.10001,7.97 -25.12001,10.33 -38.51001,10.47c-10.95999,-0.61 -22.20999,-1.62 -32.42999,-5.92c1,-8.28 2.74001,-16.47 4.03999,-24.72c11.41,5.49001 24.21001,8.83 36.91,7.08c3.91,-0.7 8.03,-2.02 10.69,-5.14c2.13,-2.4 2.52,-6.29 0.59,-8.91c-2.87,-4 -7.53,-6.05 -11.78,-8.2c-9.09,-4.22 -18.62,-9.05 -24.38,-17.6c-5.37999,-7.75 -4.86,-18.29 -0.82999,-26.52c4.14,-8.64999 12.34,-14.64 21.06999,-18.14l0,0l0,0l0,0z" fill="#004489" id="svg_4"/>
  <path d="m1.01,37.24001c15.68,0.01999 31.36,0.00999 47.04,-0.01001c3.96,-0.02999 8.32,0.65 11.21,3.61c2.45,2.43001 3.1,5.96001 3.76,9.21c3.11,15.58 6.55,31.11001 9.62,46.7c-7.84,-19.29 -22.77,-35.29 -41.06,-45.12c-9.6,-5.3 -19.95,-9.16 -30.58,-11.82001c0,-0.64 0.01,-1.93 0.01,-2.56999z" fill="#fa0" id="svg_5"/>
  <path d="m104.45,37.19c10.59,-0.18001 21.17001,-0.03001 31.76001,-0.08c-15.36001,36.35 -31.23,72.48 -46.64001,108.81c-10.58,0.18001 -21.17,0.04001 -31.76,0.08c-8.74,-31.46 -17.69,-62.86 -26.23,-94.37c18.29,9.82999 33.22,25.82999 41.06,45.12l0.13,0.25c0.97,4.6 1.94,9.21 2.76,13.85c9.78,-24.5 19.23,-49.13 28.92,-73.66l0,0l0,0l0,0l0,0z" fill="#004489" id="svg_6"/>
  <path d="m147.86,37.1c9.95,0 19.91,0.05 29.86,-0.02c-6,36.33 -12.3,72.61 -18.5,108.91c-9.99001,0.01999 -19.98,0 -29.97,0.00999c6.22,-36.3 12.3,-72.62 18.61,-108.9l0,0l0,0l0,0z" fill="#004489" id="svg_7"/>
  <path d="m317.17999,37.24001c8.48001,-0.29001 16.98001,-0.09 25.47,-0.08001c7.99002,36.36 16.17001,72.68 24,109.08001c-9.25998,0.03 -18.51999,0.01999 -27.78,0.00999c-1.16998,-5.39999 -2.44,-10.78 -3.51999,-16.19c-12.62,-0.31 -25.26001,-0.20999 -37.88,-0.06c-1.95999,5.46001 -4.11002,10.84 -6.14999,16.27c-10.51001,-0.04001 -21.01001,0.01999 -31.52002,-0.03c14.73001,-33.41 29.46002,-66.83 44.28,-100.2c2,-5.42001 7.48001,-8.6 13.10001,-8.8l0,0z" fill="#004489" id="svg_8"/>
  <path d="m321.57001,67.59c3.11002,13.12 5.82001,26.34 8.70001,39.52c-7.99002,-0.02 -15.98001,0.05 -23.96002,-0.05c5.15002,-13.13 10.30002,-26.25999 15.26001,-39.47z" fill="#fff" id="svg_9"/>
  <path fill="#fff" id="svg_11"/>
  <path fill="#fff" id="svg_12" d="m414.48999,112.38c2.58002,-13.18999 4.39001,-26.53 7.10001,-39.68999c4.64001,0.1 9.26999,0.07999 13.91,0.00999c0.95999,7.51 1.04001,15.08 1.32999,22.63c3.53998,-7.87999 6.47,-15.16 10.05002,-22.58c4.92999,0.04 9.87,-0.15 14.79999,0.19c-2.38,13.16 -4.51999,26.37 -7.10999,39.5c-2.73001,-0.05 -5.46002,-0.05 -8.17999,-0.04c1.75998,-9.8 3.63998,-19.58 5.19998,-29.41c-4.57999,9.6 -8.10999,19.66 -12.38998,29.4l-9.37006,0.04999l-0.23996,-3.36999c-0.34,-8.75 -0.89999,-17.49 -1.44998,-26.23l-5.21002,29.61l-8.44,-0.07z"/>
  <path fill="#fff" id="svg_13" d="m682.28998,73.45c2.76001,-0.32999 5.55005,-0.14 8.33002,-0.03c-2.77002,12.95 -4.46002,26.1 -7.10999,39.08c-2.67999,-0.02 -5.55994,-0.02 -8.21997,0.01c0.03003,-0.8 0.48993,-2.41 0.5199,-3.21c-2.39996,2.03 -5.36993,4.00999 -8.69995,3.57999c-7.17999,-0.5 -11.22998,-6.61 -10.87,-12.71999c-0.77002,-9.11 5.81,-20.2 15.87,-19.83c3.40002,0.02 5.56006,2.03 8.03009,3.8c0.73993,-3.57 1.33984,-7.03 2.1499,-10.68z"/>
  <path d="m465.95001,80.9c6.64999,-1.63 14.62997,-2.58 20.51999,1.66c3.35001,2.38 2.38998,6.92001 1.92001,10.4c-1.29001,6.48 -2.39001,13.01 -3.88,19.46c-2.35001,-0.03 -4.71002,-0.00999 -7.05002,0.05c-0.03998,-0.72 -0.10999,-2.17 -0.13998,-2.9c-4.36002,3.06 -10.67999,4.72 -15.41,1.58c-4.89001,-3.57 -4.20999,-11.4 0,-15.24c4.72,-4.68 11.56003,-3.89001 17.69,-4.11c0.24002,-1.59 0.20999,-4.06001 -1.81,-4.51c-4.69,-1.55 -9.64001,0.32 -14.39001,0.74c0.80002,-2.38 1.26001,-4.94 2.55002,-7.13z" fill="#fff" id="svg_14"/>
  <path d="m498,80.27c5.07999,-1.21999 10.63,-1.09 15.75,-0.21999l-1.23999,6.86c-3.86002,-0.08 -8.36002,-1.73 -11.73001,0.75999c-1.29001,1.47 0.03,3.58 1.47,4.27c2.98999,1.6 6.91,1.92 8.91,5c2.87997,5.46 -0.06,13.25999 -6.25,14.81c-5.78,1.37 -11.94,0.99 -17.69,-0.38c0.38,-2.33 0.87,-4.64 1.37,-6.95c4.01001,0.95 8.26999,1.91 12.37,0.92c1.60001,-0.74 2.26001,-2.25999 1.61002,-3.91c-3.01001,-2.92 -7.96002,-2.94 -10.5,-6.47c-2.98001,-5.23 -0.32001,-13.4 5.92999,-14.69z" fill="#fff" id="svg_15"/>
  <path d="m650.35999,85c2.20001,-2.96 5.31,-5.35 9.22003,-4.9c-0.54999,2.38 -1.07001,4.76 -1.54999,7.14c-2.47003,0.54 -5.26001,0.81001 -7.11005,2.74001c-1.95996,1.74 -2.38995,4.48 -2.85999,6.92c-0.98999,5.11 -1.42999,10.33 -2.89001,15.34c-2.72998,0.25 -5.47998,0.16 -8.20996,0.18c1.62,-10.75999 3.50995,-21.49 5.52997,-32.18c2.72998,0.02 5.47003,0.01 8.21002,-0.02c-0.13,1.59 -0.23999,3.18 -0.34003,4.78l0,0l0,0l0,0z" fill="#fff" id="svg_18"/>
  <path d="m668.70001,89.64c1.59003,-2.22 4.67999,-2.77 7.14001,-1.74c6.23975,4.03003 -1.52966,18.67996 -5.91003,17.8c-8.30963,-0.19004 -5.19,-11.62 -1.22998,-16.06z" fill="#fa0" id="svg_20"/>
  <path fill="#fa0" id="svg_21" d="m524.10999,93.85c0.04004,-0.25 0.13,-0.77 0.17004,-1.03l5.48999,0.12c-0.21002,1.63 -0.35004,3.27 -0.42004,4.91l-4.56,0.02l-0.67999,-4.02z"/>
  <path d="m569.48999,92.75c3.26001,0.07 6.52002,0.09 9.78998,0.1c-0.09998,1.65 -0.13995,3.31001 -0.09998,4.97c-3.52002,-0.05 -7.03998,-0.07 -10.56,-0.06c0.26001,-1.68 0.52997,-3.35 0.87,-5.01z" fill="#fa0" id="svg_22"/>
  <path d="m468.23999,100.99c2.25,-3.49 6.80002,-3.82 10.56,-3.68c-0.38998,2.4 -0.67999,5.14 -2.70999,6.78c-2,2.03001 -6.32001,2.81001 -7.57001,1.53001c-0.92999,-0.9 -1.48999,-3.28001 -0.28,-4.63l0,0l0,0l0,0z" fill="#ff0004" id="svg_23"/>
  <path fill="#fa0" id="svg_24" d="m617.48999,100.38c2.35004,-3.17 6.62,-2.99 10.14001,-3.07c-0.28003,2.4 -0.47998,5.19 -2.60999,6.76c-1.96002,2.11 -6.57001,2.49 -7.62,1.61c-2.25995,-1.16001 -1.55005,-3.83 0.08997,-5.3z"/>
  <path d="m568.62,97.76c3.52002,-0.01 7.03998,0.00999 10.56,0.06c0.25,1.99 0.71002,3.95 1.35004,5.85c-4.29004,-0.00999 -8.57001,-0.00999 -12.84003,-0.02c0.31,-1.96 0.64001,-3.93 0.92999,-5.89z" fill="#ff0004" id="svg_25"/>
  <g id="svg_31">
   <path d="m537.42999,81.6c5.47998,-2.84 12.98999,-3.14 17.94,0.94c4.40002,4.15 3.22998,10.69 2.20001,15.99c-6.62,-0.01 -13.23999,-0.1 -19.86005,0.04c0.84003,2.46 1.94,5.15 4.49005,6.29c4.77997,1.71 10.04999,0.66 14.57001,-1.38c-0.52002,2.57999 -1.03003,5.16 -1.52002,7.75c-6.54004,1.57999 -14.01001,2.1 -20.02002,-1.47c-4.14996,-2.38 -5.83002,-7.36 -5.88,-11.91c0.07001,-1.64 0.21002,-3.28 0.42004,-4.91c1.15997,-4.48 3.37994,-9.10001 7.65997,-11.34z" fill="#fff" id="svg_16"/>
   <path d="m539.03003,92.38c1.19,-2.86 3.29999,-6.64 7.02002,-6.00999c3.08997,0.1 4.16998,3.5 4.70996,6.00999c-3.90997,0.14 -7.82001,0.15 -11.72998,0z" fill="#ff0004" id="svg_19"/>
  </g>
  <path d="m519.57001,72.69c2.75,0.05 5.5,0.04 8.23999,0.22c-0.26001,1.75 -0.52997,3.50999 -0.78998,5.25999c-0.06,0.5 -0.20001,1.51 -0.27002,2.01c1.65997,0.09 3.34003,0.13 5.01001,0.18c-0.39001,2.15 -0.79999,4.31 -1.20001,6.46c-1.69,-0.03 -3.39001,-0.07 -5.06,-0.11c-0.45001,2.03 -0.87,4.06 -1.21997,6.11c-0.04004,0.26 -0.13,0.78 -0.17004,1.03c-0.66998,3.85 -2.44,10.59 -1.72998,11.59c1.32001,1.36 4.42999,0.23 6.65997,0.28l-1.81,5.68c-3.21997,1.36 -6.94995,1.34 -10.28998,0.49c-2.21002,-0.4 -3.97003,-2.56 -3.29999,-4.84c1.73999,-11.49001 3.94,-22.91 5.92999,-34.36l0,0l0,0l0,0z" fill="#fff" id="svg_10"/>
  <path d="m563.15997,80.45c2.85004,-0.34 5.74005,-0.18 8.61005,-0.17c-0.17999,1.04 -0.55005,3.13 -0.73999,4.17c2.66998,-2.93999 6.18994,-4.7 10.16998,-5.00999c-1.10004,2.85 -2.16003,5.71 -3.06,8.63c-3.48999,0.1 -7,1.38 -8.65002,4.68c-0.33997,1.66 -0.60999,3.33 -0.87,5.01c-0.28998,1.96 -0.62,3.93 -0.92999,5.89c-0.27002,1.67 -0.53003,3.34 -0.82001,5c-0.21997,1.2 -0.48999,2.39 -0.82001,3.56c-2.88,0.29 -5.76996,0.18 -8.64996,0.19c2.09998,-10.61 3.50995,-21.37 5.75995,-31.95l0,0l0,0l0,0z" fill="#fff" id="svg_17"/>
</svg>